<svg width="16" height="18" viewBox="0 0 16 18" fill="none" xmlns="http://www.w3.org/2000/svg">
<path d="M9.44167 16.5C9.29516 16.7526 9.08487 16.9622 8.83185 17.1079C8.57884 17.2537 8.29198 17.3304 8 17.3304C7.70802 17.3304 7.42116 17.2537 7.16814 17.1079C6.91513 16.9622 6.70484 16.7526 6.55833 16.5M13 5.66667C13 4.34059 12.4732 3.06882 11.5355 2.13114C10.5979 1.19346 9.32608 0.666672 8 0.666672C6.67392 0.666672 5.40215 1.19346 4.46447 2.13114C3.52678 3.06882 3 4.34059 3 5.66667C3 11.5 0.5 13.1667 0.5 13.1667H15.5C15.5 13.1667 13 11.5 13 5.66667Z" stroke="#B3B3B3" stroke-linecap="round" stroke-linejoin="round"/>
</svg>
