<?xml version="1.0" encoding="UTF-8" standalone="no"?>
<svg
   width="48"
   height="48"
   viewBox="0 0 48 48"
   fill="none"
   version="1.1"
   id="svg1"
   sodipodi:docname="Edit.svg"
   inkscape:version="1.4 (86a8ad7, 2024-10-11)"
   xmlns:inkscape="http://www.inkscape.org/namespaces/inkscape"
   xmlns:sodipodi="http://sodipodi.sourceforge.net/DTD/sodipodi-0.dtd"
   xmlns="http://www.w3.org/2000/svg"
   xmlns:svg="http://www.w3.org/2000/svg">
  <defs
     id="defs1" />
  <sodipodi:namedview
     id="namedview1"
     pagecolor="#ffffff"
     bordercolor="#000000"
     borderopacity="0.25"
     inkscape:showpageshadow="2"
     inkscape:pageopacity="0.0"
     inkscape:pagecheckerboard="0"
     inkscape:deskcolor="#d1d1d1"
     inkscape:zoom="8.2291667"
     inkscape:cx="23.270886"
     inkscape:cy="39.129114"
     inkscape:window-width="1920"
     inkscape:window-height="992"
     inkscape:window-x="-8"
     inkscape:window-y="-8"
     inkscape:window-maximized="1"
     inkscape:current-layer="svg1" />
  <path
     d="M22 7.99996H8C6.93913 7.99996 5.92172 8.42139 5.17157 9.17154C4.42143 9.92168 4 10.9391 4 12V40C4 41.0608 4.42143 42.0782 5.17157 42.8284C5.92172 43.5785 6.93913 44 8 44H36C37.0609 44 38.0783 43.5785 38.8284 42.8284C39.5786 42.0782 40 41.0608 40 40V26M37 4.99996C37.7956 4.20432 38.8748 3.75732 40 3.75732C41.1252 3.75732 42.2044 4.20432 43 4.99996C43.7956 5.79561 44.2426 6.87475 44.2426 7.99996C44.2426 9.12518 43.7956 10.2043 43 11L24 30L16 32L18 24L37 4.99996Z"
     stroke="#1E1E1E"
     stroke-width="4"
     stroke-linecap="round"
     stroke-linejoin="round"
     id="path1"
     style="stroke:#ffffff;stroke-opacity:1" />
</svg>
