<?xml version="1.0" encoding="UTF-8" standalone="no"?>
<!-- Created with Inkscape (http://www.inkscape.org/) -->

<svg
   width="136.33141mm"
   height="136.49207mm"
   viewBox="0 0 136.3314 136.49207"
   version="1.1"
   id="svg1"
   xml:space="preserve"
   xmlns="http://www.w3.org/2000/svg"
   xmlns:svg="http://www.w3.org/2000/svg"><defs
     id="defs1" /><g
     id="layer1"
     transform="translate(-36.544623,-80.185146)"><g
       id="g4"
       style="fill:#b3b3b3;fill-opacity:1;stroke:#b3b3b3;stroke-opacity:1"><path
         style="fill:#b3b3b3;fill-opacity:1;stroke:#b3b3b3;stroke-opacity:1"
         d="m 62.752913,215.47682 c -1.562802,-0.77878 -2.476449,-1.94577 -2.956114,-3.77581 -0.609494,-2.32537 0.772738,-5.12802 3.099156,-6.28391 0.963445,-0.47869 2.576149,-0.50226 43.069675,-0.6296 l 42.06874,-0.13229 1.78371,-0.69396 c 5.0626,-1.96961 8.51731,-5.42432 10.48692,-10.48692 l 0.69396,-1.78371 v -43.25937 -43.25937 l -0.69396,-1.7837 c -1.6741,-4.303035 -4.62191,-7.677099 -8.26501,-9.460153 -4.06135,-1.987764 -0.71761,-1.853023 -45.98464,-1.853023 -28.992057,0 -41.073611,-0.08501 -42.057106,-0.295933 -1.903161,-0.408155 -3.721975,-2.199318 -4.182473,-4.118889 -0.616871,-2.571407 0.58305,-5.118745 2.958672,-6.281029 l 1.41809,-0.693807 42.185507,0.073 42.1855,0.073 2.64583,0.726018 c 10.15697,2.787075 17.63146,10.274055 20.44845,20.482586 l 0.71822,2.60276 v 43.78854 43.78854 l -0.71822,2.60276 c -2.82395,10.23379 -10.26373,17.66908 -20.50736,20.495 l -2.58692,0.71365 -42.20276,0.0729 -42.202757,0.0729 z m 46.317757,-38.99418 c -3.21585,-0.76277 -5.15718,-4.57025 -3.88565,-7.62083 0.26825,-0.64357 2.80458,-3.38509 7.33554,-7.929 l 6.92552,-6.94531 -39.019391,-0.006 c -37.169682,-0.006 -39.06967,-0.0286 -40.079995,-0.48763 -1.906717,-0.8662 -3.302071,-3.00559 -3.302071,-5.06281 0,-2.05721 1.395354,-4.1966 3.302071,-5.06281 1.010323,-0.45898 2.910172,-0.48209 40.075704,-0.48763 l 39.015102,-0.006 -7.03957,-7.0776 c -7.43517,-7.47534 -7.62174,-7.72316 -7.61887,-10.12031 0.002,-1.5898 1.13013,-3.59614 2.51669,-4.47547 1.53164,-0.97133 2.83876,-1.20152 4.51064,-0.79434 1.23626,0.30109 1.92624,0.93529 13.47382,12.38462 6.69396,6.63701 12.43872,12.53254 12.76614,13.10118 0.42633,0.74041 0.59532,1.46092 0.59532,2.53817 0,1.07729 -0.16898,1.79772 -0.59532,2.53807 -0.32742,0.5686 -6.02405,6.42751 -12.65918,13.01981 -10.94419,10.87355 -12.18208,12.02158 -13.33737,12.36927 -1.38907,0.41805 -1.68786,0.43051 -2.97913,0.12424 z"
         id="path1" /></g></g></svg>
