<?xml version="1.0" encoding="UTF-8" standalone="no"?>
<svg
   version="1.0"
   width="512.000000pt"
   height="512.000000pt"
   viewBox="0 0 512.000000 512.000000"
   preserveAspectRatio="xMidYMid meet"
   id="svg5"
   sodipodi:docname="willpower-_2_.svg"
   inkscape:version="1.4 (86a8ad7, 2024-10-11)"
   xmlns:inkscape="http://www.inkscape.org/namespaces/inkscape"
   xmlns:sodipodi="http://sodipodi.sourceforge.net/DTD/sodipodi-0.dtd"
   xmlns:xlink="http://www.w3.org/1999/xlink"
   xmlns="http://www.w3.org/2000/svg"
   xmlns:svg="http://www.w3.org/2000/svg">
  <defs
     id="defs5">
    <linearGradient
       id="linearGradient33"
       inkscape:collect="always">
      <stop
         style="stop-color:#7b2bf5;stop-opacity:1;"
         offset="0"
         id="stop34" />
      <stop
         style="stop-color:#a46df9;stop-opacity:1;"
         offset="1"
         id="stop35" />
    </linearGradient>
    <linearGradient
       inkscape:collect="always"
       xlink:href="#linearGradient33"
       id="linearGradient35"
       x1="574.70404"
       y1="951.55151"
       x2="4546.354"
       y2="4167.73"
       gradientUnits="userSpaceOnUse" />
  </defs>
  <sodipodi:namedview
     id="namedview5"
     pagecolor="#ffffff"
     bordercolor="#000000"
     borderopacity="0.25"
     inkscape:showpageshadow="2"
     inkscape:pageopacity="0.0"
     inkscape:pagecheckerboard="0"
     inkscape:deskcolor="#d1d1d1"
     inkscape:document-units="pt"
     inkscape:zoom="1.1572266"
     inkscape:cx="341.33333"
     inkscape:cy="341.33333"
     inkscape:window-width="1920"
     inkscape:window-height="992"
     inkscape:window-x="-8"
     inkscape:window-y="-8"
     inkscape:window-maximized="1"
     inkscape:current-layer="svg5" />
  <g
     transform="translate(0.000000,512.000000) scale(0.100000,-0.100000)"
     fill="#000000"
     stroke="none"
     id="g5"
     style="fill:url(#linearGradient35);fill-opacity:1;fill-rule:nonzero">
    <path
       d="M4266 4706 c-54 -20 -94 -62 -110 -117 -31 -104 -82 -158 -171 -184 -96 -28 -145 -88 -145 -175 0 -47 30 -112 62 -134 12 -9 51 -25 86 -37 86 -28 133 -75 161 -161 12 -35 28 -74 37 -86 22 -32 87 -62 134 -62 87 0 147 49 175 145 26 90 80 140 185 171 58 17 104 66 120 125 13 49 6 92 -24 139 -25 38 -42 49 -131 81 -33 12 -74 36 -91 53 -17 17 -41 58 -53 91 -32 89 -42 106 -81 131 -46 30 -105 38 -154 20z m75 -157 c4 -8 15 -36 24 -62 33 -93 119 -179 212 -212 26 -9 54 -20 62 -24 20 -10 25 -30 9 -36 -173 -60 -250 -133 -297 -277 -14 -41 -51 -55 -51 -19 0 35 -70 159 -111 196 -36 32 -121 78 -181 99 -30 9 -20 34 20 47 47 15 121 53 148 77 41 35 92 112 109 164 10 29 20 57 22 61 7 11 25 4 34 -14z"
       id="path1"
       style="fill:url(#linearGradient35);fill-opacity:1;fill-rule:nonzero" />
    <path
       d="M1929 4200 c-86 -12 -114 -24 -134 -53 -19 -29 -12 -67 16 -93 17 -15 29 -16 142 -4 108 11 134 11 221 -3 109 -19 208 -57 306 -117 36 -22 72 -40 80 -40 8 0 44 18 80 40 162 100 333 141 505 122 243 -27 459 -156 587 -351 26 -40 48 -77 48 -82 0 -5 -533 -9 -1220 -9 -687 0 -1220 4 -1220 9 0 5 22 42 48 82 52 78 136 164 213 217 65 44 75 78 38 126 -30 38 -68 34 -137 -13 -118 -81 -222 -201 -294 -341 l-44 -85 -62 -7 c-367 -41 -685 -317 -792 -689 -30 -100 -38 -315 -17 -414 l15 -70 -67 -70 c-108 -111 -177 -231 -217 -375 -25 -92 -25 -309 0 -404 54 -202 167 -377 316 -489 l59 -45 -29 -27 c-92 -88 -69 -231 44 -280 28 -12 70 -30 94 -40 55 -23 85 -59 111 -132 32 -87 43 -104 81 -129 47 -30 90 -37 139 -24 59 16 108 62 125 120 31 104 82 159 174 186 88 26 142 88 142 163 l0 31 1558 2 1557 3 80 23 c97 27 236 92 270 126 48 48 21 126 -45 126 -16 0 -51 -13 -77 -29 -141 -87 -235 -101 -658 -101 l-332 0 -26 58 c-88 199 -110 444 -57 642 25 94 25 132 2 153 -25 23 -85 22 -106 -2 -21 -24 -63 -189 -72 -286 -5 -50 -11 -75 -18 -72 -40 15 -143 29 -226 30 -116 2 -140 -11 -140 -73 0 -52 24 -70 91 -70 69 0 179 -16 244 -35 l51 -14 12 -73 c7 -40 26 -111 42 -158 16 -47 30 -88 30 -92 0 -5 -405 -8 -900 -8 -495 0 -900 3 -900 6 0 3 13 46 30 96 16 49 35 120 41 159 l12 69 51 15 c64 18 176 35 241 35 68 0 95 20 95 69 0 64 -24 76 -140 74 -84 -1 -186 -15 -226 -30 -8 -3 -14 21 -19 74 -9 99 -50 260 -71 284 -23 25 -85 25 -107 1 -22 -24 -21 -53 5 -159 18 -70 22 -117 22 -233 1 -160 -16 -244 -76 -387 l-30 -73 -181 0 c-163 0 -185 2 -224 21 -54 26 -87 68 -113 144 -27 79 -43 101 -90 125 -106 54 -218 1 -254 -122 -9 -29 -26 -65 -38 -81 l-23 -27 -70 42 c-83 50 -187 153 -234 231 -41 70 -82 169 -88 217 l-5 35 85 23 c47 13 125 43 172 66 l87 43 47 -37 c48 -39 128 -121 171 -178 35 -45 80 -53 114 -19 41 41 34 72 -32 156 -32 40 -84 95 -115 121 l-56 48 54 47 c30 25 84 83 120 128 50 63 65 89 65 114 0 43 -30 73 -74 73 -30 0 -40 -8 -83 -62 -133 -169 -286 -279 -477 -344 -85 -29 -96 -30 -96 -4 0 56 36 184 72 260 35 72 56 100 146 189 116 116 109 94 78 231 -16 66 -21 233 -10 289 l7 31 2117 0 2118 0 6 -31 c11 -56 6 -223 -10 -289 -31 -137 -38 -115 78 -231 90 -89 111 -117 146 -189 36 -76 72 -204 72 -260 0 -26 -11 -25 -96 4 -191 65 -344 175 -477 344 -43 54 -53 62 -83 62 -44 0 -74 -30 -74 -73 0 -25 15 -51 65 -114 36 -45 90 -103 120 -128 l54 -47 -56 -48 c-31 -26 -83 -81 -115 -121 -66 -84 -73 -115 -32 -156 34 -34 79 -26 114 19 43 57 123 140 172 178 l46 37 77 -38 c42 -22 116 -51 164 -65 47 -14 91 -27 98 -29 19 -6 -10 -94 -69 -213 -50 -99 -51 -105 -37 -130 21 -38 55 -53 90 -40 49 17 124 161 165 315 28 104 26 313 -4 417 -42 146 -114 267 -225 376 l-55 55 15 70 c21 99 13 314 -17 414 -107 372 -425 648 -792 689 l-62 7 -36 70 c-134 262 -342 431 -616 501 -235 59 -481 30 -680 -81 l-62 -35 -90 46 c-159 79 -376 117 -543 94z m2076 -750 c253 -36 474 -190 591 -412 l35 -68 -2071 0 -2071 0 36 69 c93 176 259 315 455 380 36 12 92 25 125 30 86 12 2813 13 2900 1z m-3185 -2249 c0 -34 70 -159 110 -195 44 -40 119 -80 168 -91 52 -11 43 -40 -20 -61 -120 -39 -200 -117 -243 -237 -32 -86 -45 -84 -80 16 -33 93 -119 179 -212 212 -26 9 -54 20 -62 24 -20 10 -25 30 -9 36 173 60 250 133 297 278 14 40 51 54 51 18z"
       id="path2"
       style="fill:url(#linearGradient35);fill-opacity:1;fill-rule:nonzero" />
    <path
       d="M1741 2614 c-18 -23 -21 -41 -21 -119 0 -78 3 -96 21 -119 28 -36 80 -36 108 0 18 23 21 41 21 124 0 88 -2 98 -23 118 -33 31 -80 29 -106 -4z"
       id="path3"
       style="fill:url(#linearGradient35);fill-opacity:1;fill-rule:nonzero" />
    <path
       d="M3272 2617 c-19 -21 -22 -34 -22 -119 0 -81 3 -99 21 -122 28 -36 80 -36 108 0 18 23 21 41 21 119 0 78 -3 96 -21 119 -27 34 -77 36 -107 3z"
       id="path4"
       style="fill:url(#linearGradient35);fill-opacity:1;fill-rule:nonzero" />
    <path
       d="M2312 2483 c-12 -10 -24 -29 -27 -43 -17 -76 141 -180 275 -180 134 0 292 104 275 180 -3 14 -15 33 -27 43 -32 27 -70 21 -115 -18 -82 -70 -184 -70 -266 0 -45 39 -83 45 -115 18z"
       id="path5"
       style="fill:url(#linearGradient35);fill-opacity:1;fill-rule:nonzero" />
  </g>
</svg>
